<?xml version="1.0" encoding="UTF-8"?>
<svg id="Layer_1" data-name="Layer 1" xmlns="http://www.w3.org/2000/svg" viewBox="0 0 1000 250.36">
  <defs>
    <style>
      .cls-1 {
        fill: #fabb15;
      }

      .cls-1, .cls-2 {
        stroke-width: 0px;
      }

      .cls-2 {
        fill: #003048;
      }
    </style>
  </defs>
  <g>
    <path class="cls-2" d="M727.7,220.55c-2.96,0-5.45-.5-7.59-2.6l2.39-2.39c1.46,1.5,3.42,1.89,5.2,1.89,2.21,0,3.96-.78,3.96-2.49,0-1.21-.68-2-2.42-2.14l-2.89-.25c-3.39-.28-5.35-1.82-5.35-4.99,0-3.53,3.03-5.53,6.81-5.53,2.71,0,5.02.57,6.7,2.03l-2.28,2.32c-1.14-.96-2.74-1.32-4.45-1.32-2.17,0-3.28.96-3.28,2.32,0,1.07.57,1.89,2.5,2.07l2.85.25c3.39.29,5.38,1.89,5.38,5.1,0,3.78-3.21,5.74-7.52,5.74Z"/>
    <path class="cls-2" d="M755.3,218.41c-1.18,1.21-2.96,2.14-5.42,2.14s-4.21-.93-5.38-2.14c-1.71-1.78-2.14-4.06-2.14-7.13s.43-5.31,2.14-7.09c1.18-1.21,2.92-2.14,5.38-2.14s4.24.93,5.42,2.14c1.71,1.78,2.14,4.06,2.14,7.09s-.43,5.35-2.14,7.13ZM752.55,206.33c-.68-.68-1.6-1.03-2.67-1.03s-1.96.36-2.64,1.03c-1.1,1.1-1.25,2.99-1.25,4.95s.14,3.85,1.25,4.95c.68.68,1.57,1.07,2.64,1.07s2-.39,2.67-1.07c1.1-1.1,1.25-2.99,1.25-4.95s-.14-3.85-1.25-4.95Z"/>
    <path class="cls-2" d="M770.78,220.34c-3.46,0-4.95-2.32-4.95-4.99v-20.39h3.63v20.17c0,1.39.5,2.1,1.96,2.1h1.6v3.1h-2.24Z"/>
    <path class="cls-2" d="M790.32,220.34v-1.64c-1.32,1.32-2.57,1.85-4.81,1.85s-3.74-.53-4.85-1.64c-.93-.96-1.43-2.35-1.43-3.88,0-3.03,2.1-5.2,6.24-5.2h4.78v-1.28c0-2.28-1.14-3.39-3.96-3.39-2,0-2.96.46-3.96,1.75l-2.39-2.24c1.71-2,3.49-2.6,6.49-2.6,4.95,0,7.45,2.1,7.45,6.2v12.08h-3.56ZM790.25,212.35h-4.24c-2.14,0-3.24.96-3.24,2.6s1.03,2.57,3.31,2.57c1.39,0,2.42-.11,3.39-1.03.53-.53.78-1.39.78-2.67v-1.46Z"/>
    <path class="cls-2" d="M813,206.51c-.82-.82-1.46-1.21-2.71-1.21-1.96,0-3.6,1.57-3.6,4.06v10.98h-3.63v-18.07h3.56v1.96c.93-1.28,2.78-2.18,4.81-2.18,1.75,0,3.06.46,4.31,1.71l-2.74,2.75Z"/>
    <path class="cls-2" d="M840.24,220.55c-2.96,0-5.45-.5-7.59-2.6l2.39-2.39c1.46,1.5,3.42,1.89,5.2,1.89,2.21,0,3.96-.78,3.96-2.49,0-1.21-.68-2-2.42-2.14l-2.89-.25c-3.39-.28-5.35-1.82-5.35-4.99,0-3.53,3.03-5.53,6.81-5.53,2.71,0,5.03.57,6.7,2.03l-2.28,2.32c-1.14-.96-2.74-1.32-4.45-1.32-2.17,0-3.28.96-3.28,2.32,0,1.07.57,1.89,2.5,2.07l2.85.25c3.39.29,5.38,1.89,5.38,5.1,0,3.78-3.21,5.74-7.52,5.74Z"/>
    <path class="cls-2" d="M861.43,223.94c-.36,1-.78,1.71-1.32,2.24-1,1-2.32,1.32-3.71,1.32h-1.46v-3.28h.93c1.53,0,2.07-.46,2.6-1.92l1-2.82-6.31-17.22h3.85l4.31,12.72,4.21-12.72h3.88l-7.98,21.67Z"/>
    <path class="cls-2" d="M881.86,220.55c-2.96,0-5.45-.5-7.59-2.6l2.39-2.39c1.46,1.5,3.42,1.89,5.2,1.89,2.21,0,3.96-.78,3.96-2.49,0-1.21-.68-2-2.42-2.14l-2.89-.25c-3.39-.28-5.35-1.82-5.35-4.99,0-3.53,3.03-5.53,6.81-5.53,2.71,0,5.02.57,6.7,2.03l-2.28,2.32c-1.14-.96-2.74-1.32-4.45-1.32-2.17,0-3.28.96-3.28,2.32,0,1.07.57,1.89,2.5,2.07l2.85.25c3.39.29,5.38,1.89,5.38,5.1,0,3.78-3.21,5.74-7.52,5.74Z"/>
    <path class="cls-2" d="M902.4,220.34c-3.39,0-4.95-2.42-4.95-5.02v-9.94h-2.07v-2.78h2.07v-5.49h3.64v5.49h3.49v2.78h-3.49v9.77c0,1.32.64,2.1,2,2.1h1.5v3.1h-2.18Z"/>
    <path class="cls-2" d="M915.35,212.35c0,3.1,1.64,5.06,4.6,5.06,2.03,0,3.1-.57,4.38-1.85l2.32,2.17c-1.85,1.85-3.6,2.82-6.77,2.82-4.53,0-8.13-2.39-8.13-9.27,0-5.84,3.03-9.23,7.66-9.23s7.66,3.57,7.66,8.7v1.6h-11.73ZM922.97,207.36c-.57-1.35-1.85-2.28-3.56-2.28s-3.03.93-3.6,2.28c-.36.82-.43,1.36-.46,2.46h8.13c-.04-1.1-.14-1.64-.5-2.46Z"/>
    <path class="cls-2" d="M957.48,220.34v-11.01c0-2.82-1.6-4.03-3.63-4.03s-3.74,1.25-3.74,3.85v11.19h-3.64v-11.01c0-2.82-1.6-4.03-3.63-4.03s-3.74,1.25-3.74,4.03v11.01h-3.63v-18.07h3.56v1.82c1.21-1.32,2.99-2.03,4.81-2.03,2.24,0,3.99.89,5.13,2.64,1.46-1.78,3.28-2.64,5.67-2.64,1.85,0,3.49.61,4.56,1.64,1.39,1.36,1.93,3.07,1.93,5.1v11.55h-3.64Z"/>
  </g>
  <g>
    <path class="cls-2" d="M353.1,178.91h-18.18l-41.08-124.46h25.17l25,81.11,25-81.11h25.35l-41.25,124.46Z"/>
    <path class="cls-2" d="M482.99,166.32c-8.74,8.74-19.4,13.64-33.56,13.64s-25-4.89-33.74-13.64c-12.58-12.58-12.24-28.14-12.24-49.64s-.35-37.06,12.24-49.64c8.74-8.74,19.58-13.64,33.74-13.64s24.82,4.9,33.56,13.64c12.59,12.59,12.41,28.14,12.41,49.64s.18,37.06-12.41,49.64ZM464.98,81.72c-3.5-4.02-8.92-6.64-15.56-6.64s-12.24,2.62-15.73,6.64c-4.72,5.24-5.94,11.01-5.94,34.96s1.22,29.72,5.94,34.96c3.5,4.02,9.09,6.64,15.73,6.64s12.06-2.62,15.56-6.64c4.72-5.24,6.12-11.01,6.12-34.96s-1.4-29.72-6.12-34.96Z"/>
    <path class="cls-2" d="M580.72,178.91l-24.12-43.35-23.95,43.35h-27.79l38.63-63.8-36.18-60.66h27.62l21.68,40.21,21.85-40.21h27.44l-36.18,60.66,38.81,63.8h-27.79Z"/>
    <path class="cls-2" d="M698.72,179.96c-18.88,0-33.21-4.02-45.45-16.43l15.73-15.73c7.87,7.87,18.53,10.49,30.07,10.49,14.33,0,22.03-5.42,22.03-15.38,0-4.37-1.22-8.04-3.85-10.49-2.45-2.27-5.24-3.5-11.01-4.37l-15.03-2.1c-10.66-1.57-18.53-4.89-24.12-10.31-5.94-5.94-8.92-13.98-8.92-24.47,0-22.2,16.43-37.76,43.35-37.76,17.13,0,29.54,4.2,40.21,14.51l-15.38,15.21c-7.87-7.52-17.31-8.57-25.52-8.57-12.93,0-19.23,7.17-19.23,15.73,0,3.15,1.05,6.47,3.67,8.92,2.45,2.27,6.47,4.19,11.54,4.89l14.68,2.1c11.36,1.57,18.53,4.72,23.77,9.61,6.64,6.29,9.61,15.38,9.61,26.4,0,24.12-20.1,37.76-46.15,37.76Z"/>
    <path class="cls-1" d="M843.12,166.32c-8.74,8.74-19.4,13.64-33.56,13.64s-25-4.89-33.74-13.64c-12.58-12.58-12.24-28.14-12.24-49.64s-.35-37.06,12.24-49.64c8.74-8.74,19.58-13.64,33.74-13.64s24.82,4.9,33.56,13.64c12.59,12.59,12.41,28.14,12.41,49.64s.18,37.06-12.41,49.64ZM825.11,81.72c-3.5-4.02-8.92-6.64-15.56-6.64s-12.24,2.62-15.73,6.64c-4.72,5.24-5.94,11.01-5.94,34.96s1.22,29.72,5.94,34.96c3.5,4.02,9.09,6.64,15.73,6.64s12.06-2.62,15.56-6.64c4.72-5.24,6.12-11.01,6.12-34.96s-1.4-29.72-6.12-34.96Z"/>
    <path class="cls-2" d="M880.36,178.91V54.45h24.3v102.79h56.46v21.68h-80.76Z"/>
  </g>
  <g>
    <polygon class="cls-1" points="153.2 49.99 153.23 49.99 153.23 29.11 153.2 29.11 153.2 19.12 129.68 19.12 129.68 28.61 129.68 49.37 129.68 101.41 153.2 101.41 153.2 49.99"/>
    <g>
      <path class="cls-2" d="M239.95,120.26l-.12-1.36-58.4-.04h0s-23.78,0-23.78,0l-12.25,28.91,11.88,28.09,15.39-36.33h46.35c-5.15,40.06-39.13,70.07-79.73,70.07-33.02,0-63.18-20.76-75.05-51.67l-.37-.95h-21.75l.59,1.92c13.15,42.69,51.96,71.37,96.57,71.37,55.73,0,101.07-45.34,101.07-101.07,0-2.82-.14-5.75-.42-8.95Z"/>
      <path class="cls-2" d="M127.4,180.1h23.72l-25.89-61.24H59.58c3.79-29.27,23.8-54.31,51.14-64.77v-21.79c-42.4,12.55-72.49,52.19-72.49,96.91,0,2.84.14,5.78.42,8.97l.12,1.36h71.45l17.19,40.57Z"/>
    </g>
    <path class="cls-2" d="M235.86,99.49c-9.47-30.72-33.53-55.39-63.68-65.83v22.22c19.3,8.65,34.42,24.53,42.13,44.58l.37.95h21.77l-.59-1.92Z"/>
  </g>
</svg>